<svg width="46" height="46" viewBox="0 0 46 46" fill="none" xmlns="http://www.w3.org/2000/svg">
<g id="Icons/flame">
<g id="Group 116">
<path id="Vector" d="M17.0002 25.9286C18.1369 25.9286 19.2269 25.4771 20.0306 24.6734C20.8344 23.8697 21.2859 22.7796 21.2859 21.643C21.2859 19.2773 20.4288 18.2144 19.5716 16.5002C17.7339 12.8265 19.1876 9.55056 23.0002 6.2146C23.8573 10.5003 26.4287 14.6145 29.8572 17.3573C33.2857 20.1001 35 23.3572 35 26.7858C35 28.3616 34.6896 29.922 34.0866 31.3779C33.4835 32.8338 32.5996 34.1566 31.4853 35.2709C30.371 36.3852 29.0482 37.2691 27.5923 37.8722C26.1364 38.4752 24.576 38.7856 23.0002 38.7856C21.4243 38.7856 19.8639 38.4752 18.408 37.8722C16.9521 37.2691 15.6293 36.3852 14.515 35.2709C13.4007 34.1566 12.5168 32.8338 11.9137 31.3779C11.3107 29.922 11.0003 28.3616 11.0003 26.7858C11.0003 24.8092 11.7426 22.8532 12.7146 21.643C12.7146 22.7796 13.1661 23.8697 13.9698 24.6734C14.7735 25.4771 15.8636 25.9286 17.0002 25.9286Z" stroke="white" stroke-width="2" stroke-linecap="round" stroke-linejoin="round"/>
</g>
</g>
</svg>
