<svg width="118" height="22" viewBox="0 0 118 22" fill="none" xmlns="http://www.w3.org/2000/svg">
<path d="M11 0L14.1682 6.6394L21.4616 7.60081L16.1262 12.6656L17.4656 19.8992L11 16.39L4.53436 19.8992L5.87381 12.6656L0.538379 7.60081L7.83184 6.6394L11 0Z" fill="#FDC942"/>
<path d="M35 0L38.1682 6.6394L45.4616 7.60081L40.1262 12.6656L41.4656 19.8992L35 16.39L28.5344 19.8992L29.8738 12.6656L24.5384 7.60081L31.8318 6.6394L35 0Z" fill="#FDC942"/>
<path d="M59 0L62.1682 6.6394L69.4616 7.60081L64.1262 12.6656L65.4656 19.8992L59 16.39L52.5344 19.8992L53.8738 12.6656L48.5384 7.60081L55.8318 6.6394L59 0Z" fill="#FDC942"/>
<path d="M83 0L86.1682 6.6394L93.4616 7.60081L88.1262 12.6656L89.4656 19.8992L83 16.39L76.5344 19.8992L77.8738 12.6656L72.5384 7.60081L79.8318 6.6394L83 0Z" fill="#FDC942"/>
<path d="M107 0L110.168 6.6394L117.462 7.60081L112.126 12.6656L113.466 19.8992L107 16.39L100.534 19.8992L101.874 12.6656L96.5384 7.60081L103.832 6.6394L107 0Z" fill="#FDC942"/>
</svg>
