<svg width="38" height="38" viewBox="0 0 38 38" fill="none" xmlns="http://www.w3.org/2000/svg">
<path d="M14.6592 6.62383C16.2705 7.70122 18 12.9864 18 12.9864C18 12.9864 12.1157 13.1805 10.5044 12.1032C8.89312 11.0258 8.517 8.92578 9.66432 7.41271C10.8116 5.89964 13.0479 5.54644 14.6592 6.62383Z" stroke="white" stroke-width="2"/>
<path d="M22.3408 6.62383C20.7295 7.70122 19 12.9864 19 12.9864C19 12.9864 24.8843 13.1805 26.4956 12.1032C28.1069 11.0258 28.483 8.92578 27.3357 7.41271C26.1884 5.89964 23.9521 5.54644 22.3408 6.62383Z" stroke="white" stroke-width="2"/>
<path fill-rule="evenodd" clip-rule="evenodd" d="M18 13H5V20H7H18V13ZM20 13V20H31H33V13H20ZM18 22H7L7 32H18V22ZM20 32H31V22H20V32Z" fill="white"/>
</svg>
