<svg width="42" height="42" viewBox="0 0 42 42" fill="none" xmlns="http://www.w3.org/2000/svg">
<circle cx="21" cy="21" r="21" fill="#DE2A2C"/>
<path d="M20.08 28.198C19.276 28.198 18.574 28.054 17.974 27.766C17.386 27.466 16.882 27.052 16.462 26.524L18.352 24.706C18.568 25.006 18.82 25.234 19.108 25.39C19.408 25.546 19.744 25.624 20.116 25.624C20.476 25.624 20.788 25.552 21.052 25.408C21.316 25.252 21.526 25.036 21.682 24.76C21.838 24.472 21.916 24.118 21.916 23.698V15.292H24.76V23.536C24.76 24.484 24.568 25.306 24.184 26.002C23.8 26.698 23.26 27.238 22.564 27.622C21.868 28.006 21.04 28.198 20.08 28.198Z" fill="white"/>
</svg>
