<svg width="46" height="46" viewBox="0 0 46 46" fill="none" xmlns="http://www.w3.org/2000/svg">
<g id="Icons/hand">
<g id="Group 114">
<g id="Group 113">
<path id="Vector" d="M31.7371 21.4706V11.7647C31.7371 11.0158 31.4396 10.2977 30.9101 9.76815C30.3805 9.23864 29.6624 8.94116 28.9135 8.94116C28.1647 8.94116 27.4465 9.23864 26.917 9.76815C26.3875 10.2977 26.09 11.0158 26.09 11.7647" stroke="white" stroke-width="2" stroke-linecap="round" stroke-linejoin="round"/>
<path id="Vector_2" d="M26.0901 20.0588V9.82353C26.0901 9.07468 25.7926 8.35651 25.2631 7.82699C24.7336 7.29748 24.0154 7 23.2666 7C22.5177 7 21.7995 7.29748 21.27 7.82699C20.7405 8.35651 20.443 9.07468 20.443 9.82353V14.4118" stroke="white" stroke-width="2" stroke-linecap="round" stroke-linejoin="round"/>
<path id="Vector_3" d="M20.4431 20.7647V11.7647C20.4431 11.0158 20.1456 10.2977 19.6161 9.76815C19.0866 9.23864 18.3684 8.94116 17.6196 8.94116C16.8707 8.94116 16.1526 9.23864 15.623 9.76815C15.0935 10.2977 14.7961 11.0158 14.7961 11.7647V25.7059" stroke="white" stroke-width="2" stroke-linecap="round" stroke-linejoin="round"/>
<path id="Vector_4" d="M31.7373 17.2354C31.7373 16.4865 32.0348 15.7684 32.5643 15.2389C33.0938 14.7093 33.812 14.4119 34.5608 14.4119C35.3097 14.4119 36.0278 14.7093 36.5574 15.2389C37.0869 15.7684 37.3844 16.4865 37.3844 17.2354V25.706M26.0902 37.0001H23.2667C19.3138 37.0001 16.9138 35.786 14.8102 33.6966L9.72787 28.6142C9.24213 28.0763 8.98187 27.3721 9.00098 26.6476C9.02009 25.923 9.31711 25.2335 9.83053 24.7219C10.344 24.2103 11.0345 23.9158 11.7591 23.8992C12.4837 23.8827 13.1869 24.1454 13.7232 24.633L16.2079 27.1178" stroke="white" stroke-width="2" stroke-linecap="round" stroke-linejoin="round"/>
</g>
<path id="Star 33" d="M35.5 30L36.9855 34.0145L41 35.5L36.9855 36.9855L35.5 41L34.0145 36.9855L30 35.5L34.0145 34.0145L35.5 30Z" stroke="white" stroke-width="2" stroke-linecap="round" stroke-linejoin="round"/>
<path id="Star 34" d="M7.5 5L8.17523 6.82477L10 7.5L8.17523 8.17523L7.5 10L6.82477 8.17523L5 7.5L6.82477 6.82477L7.5 5Z" stroke="white" stroke-width="2" stroke-linecap="round" stroke-linejoin="round"/>
</g>
</g>
</svg>
