<svg width="9" height="14" viewBox="0 0 9 14" fill="none" xmlns="http://www.w3.org/2000/svg">
<path d="M4.07996 13.198C3.27596 13.198 2.57396 13.054 1.97396 12.766C1.38596 12.466 0.881961 12.052 0.461961 11.524L2.35196 9.706C2.56796 10.006 2.81996 10.234 3.10796 10.39C3.40796 10.546 3.74396 10.624 4.11596 10.624C4.47596 10.624 4.78796 10.552 5.05196 10.408C5.31596 10.252 5.52596 10.036 5.68196 9.76C5.83796 9.472 5.91596 9.118 5.91596 8.698V0.291999H8.75996V8.536C8.75996 9.484 8.56796 10.306 8.18396 11.002C7.79996 11.698 7.25996 12.238 6.56396 12.622C5.86796 13.006 5.03996 13.198 4.07996 13.198Z" fill="white"/>
</svg>
